<svg width="13" height="22" viewBox="0 0 16 25" fill="none" xmlns="http://www.w3.org/2000/svg">
<path d="M7.97701 24.4707C8.34627 24.4721 8.70959 24.3705 9.03165 24.1758C9.35371 23.9812 9.62356 23.7002 9.815 23.36C12.58 18.4871 15.875 12.064 15.875 9.13897C15.875 6.8817 15.0427 4.71691 13.5611 3.12078C12.0796 1.52465 10.0702 0.62793 7.97501 0.62793C5.8798 0.62793 3.87039 1.52465 2.38885 3.12078C0.907318 4.71691 0.0750122 6.8817 0.0750122 9.13897C0.0750122 12.0607 3.37501 18.4839 6.13501 23.36C6.3268 23.7008 6.59728 23.9823 6.9201 24.1769C7.24293 24.3716 7.60706 24.4728 7.97701 24.4707ZM4.802 8.55828C4.8018 7.88171 4.98786 7.22029 5.33661 6.65763C5.68536 6.09498 6.18115 5.65638 6.76129 5.39732C7.34143 5.13826 7.97985 5.07036 8.59581 5.20222C9.21177 5.33408 9.77758 5.65979 10.2217 6.13813C10.6658 6.61646 10.9683 7.22595 11.0909 7.88951C11.2135 8.55307 11.1507 9.24088 10.9104 9.86597C10.6701 10.4911 10.2632 11.0253 9.74104 11.4012C9.21889 11.7772 8.605 11.9778 7.97701 11.9778C7.13544 11.9767 6.32863 11.6161 5.73346 10.975C5.13829 10.334 4.80332 9.46494 4.802 8.55828Z" fill="#444444"/>
</svg>
