<svg width="87" height="76" viewBox="0 0 87 76" fill="none" xmlns="http://www.w3.org/2000/svg">
<path opacity="0.5" d="M82.4937 0.358887H4.54568C3.47668 0.359887 2.45168 0.785894 1.69568 1.54089C0.940679 2.29689 0.514672 3.3219 0.513672 4.3909V74.2809C0.513672 74.4579 0.548662 74.6319 0.615662 74.7949C0.683662 74.9589 0.782677 75.1069 0.906677 75.2319C1.03168 75.3559 1.17966 75.4549 1.34366 75.5229C1.50666 75.5899 1.68067 75.6249 1.85767 75.6249H85.1817C85.3587 75.6249 85.5327 75.5899 85.6957 75.5229C85.8597 75.4549 86.0077 75.3559 86.1327 75.2319C86.2567 75.1069 86.3557 74.9589 86.4237 74.7949C86.4907 74.6319 86.5257 74.4579 86.5257 74.2809V4.3909C86.5247 3.3219 86.0987 2.29689 85.3437 1.54089C84.5877 0.785894 83.5627 0.359887 82.4937 0.358887ZM78.4617 72.9369H47.5617V70.2559H78.4617V72.9369ZM79.8057 67.5679H46.2137C46.0367 67.5679 45.8627 67.6029 45.6997 67.6699C45.5357 67.7379 45.3877 67.8369 45.2627 67.9609C45.1387 68.0859 45.0397 68.2339 44.9717 68.3969C44.9047 68.5609 44.8697 68.7349 44.8697 68.9119V72.9369H42.1697V68.9119C42.1697 68.7349 42.1357 68.5599 42.0677 68.3969C42.0007 68.2339 41.9017 68.0859 41.7767 67.9609C41.6517 67.8359 41.5037 67.7369 41.3407 67.6699C41.1767 67.6019 41.0027 67.5679 40.8257 67.5679H7.22766C7.05066 67.5679 6.87668 67.6029 6.71368 67.6699C6.54968 67.7379 6.40167 67.8369 6.27667 67.9609C6.15267 68.0859 6.05366 68.2339 5.98566 68.3969C5.91866 68.5609 5.88367 68.7349 5.88367 68.9119V72.9369H3.20166V8.42291H5.90167V13.7999C5.90167 13.9759 5.93666 14.1509 6.00366 14.3139C6.07166 14.4779 6.17068 14.6259 6.29468 14.7509C6.41968 14.8749 6.56766 14.9739 6.73166 15.0419C6.89466 15.1089 7.06867 15.1439 7.24567 15.1439H40.8397C41.0047 15.1409 41.1677 15.1069 41.3197 15.0439C41.3747 15.0179 41.4287 14.9889 41.4797 14.9569C41.5497 14.9269 41.6167 14.8909 41.6797 14.8479C41.6997 14.8319 41.7077 14.8099 41.7257 14.7929C41.7937 14.7269 41.8557 14.6539 41.9097 14.5749C41.9597 14.5119 42.0037 14.4449 42.0427 14.3749C42.0747 14.2979 42.0987 14.2189 42.1167 14.1379C42.1447 14.0499 42.1637 13.9599 42.1717 13.8679C42.1717 13.8419 42.1867 13.8219 42.1867 13.7949V8.41989H44.8717V13.7999C44.8717 13.9759 44.9067 14.1509 44.9737 14.3139C45.0417 14.4779 45.1407 14.6259 45.2647 14.7509C45.3897 14.8749 45.5377 14.9739 45.7017 15.0419C45.8647 15.1089 46.0387 15.1439 46.2157 15.1439H79.8097C79.9747 15.1409 80.1377 15.1069 80.2897 15.0439C80.3447 15.0179 80.3987 14.9889 80.4497 14.9569C80.5197 14.9269 80.5867 14.8909 80.6497 14.8479C80.6697 14.8319 80.6777 14.8099 80.6957 14.7929C80.7637 14.7269 80.8257 14.6539 80.8797 14.5749C80.9297 14.5119 80.9737 14.4449 81.0127 14.3749C81.0447 14.2979 81.0687 14.2189 81.0867 14.1379C81.1157 14.0499 81.1337 13.9599 81.1417 13.8679C81.1417 13.8419 81.1567 13.8219 81.1567 13.7949V8.41989H83.8497V72.9339H81.1617V68.9089C81.1617 68.7319 81.1277 68.5579 81.0597 68.3939C80.9927 68.2309 80.8937 68.0829 80.7687 67.9579C80.6437 67.8329 80.4957 67.7339 80.3327 67.6669C80.1687 67.5989 79.9947 67.5649 79.8177 67.5649L79.8057 67.5679ZM39.4767 72.9369H8.57666V70.2559H39.4767V72.9369ZM39.4907 9.9639L38.2597 8.42389H39.4907V9.9639ZM34.8177 8.42291L38.0387 12.4529H22.1387L25.3587 8.42291H34.8177ZM18.6957 12.4529H15.5327L18.9857 8.42291H21.9157L18.6957 12.4529ZM11.9957 12.4529H8.58768V8.42291H15.4497L11.9957 12.4529ZM78.4587 9.9639L77.2277 8.42291H78.4587V9.9639ZM73.7867 8.42291L77.0087 12.4529H61.1087L64.3287 8.42291H73.7867ZM57.6637 12.4529H54.5007L57.9547 8.42291H60.8837L57.6637 12.4529ZM50.9637 12.4529H47.5557V8.42291H54.4137L50.9637 12.4529ZM4.54968 3.04691H5.91367C5.55567 3.04891 5.21367 3.19189 4.96167 3.44589C4.70967 3.69989 4.56867 4.04391 4.56967 4.40091C4.57067 4.75891 4.71368 5.10189 4.96667 5.35489C5.21967 5.60689 5.56269 5.7489 5.92068 5.7489C6.27868 5.7489 6.62166 5.60689 6.87466 5.35489C7.12766 5.10189 7.27067 4.75891 7.27167 4.40091C7.27267 4.04391 7.13167 3.69989 6.87967 3.44589C6.62767 3.19189 6.28567 3.04891 5.92767 3.04691H9.94366C9.58566 3.04891 9.24367 3.1929 8.99167 3.4469C8.73867 3.7009 8.59867 4.04489 8.59967 4.40289C8.60067 4.76089 8.74267 5.1039 8.99667 5.3559C9.24967 5.6089 9.59366 5.75092 9.95166 5.75092C10.3087 5.75092 10.6527 5.6089 10.9057 5.3559C11.1597 5.1039 11.3017 4.76089 11.3027 4.40289C11.3037 4.04489 11.1637 3.7009 10.9107 3.4469C10.6587 3.1929 10.3167 3.04891 9.95868 3.04691H13.9797C13.6217 3.04891 13.2797 3.1929 13.0277 3.4469C12.7747 3.7009 12.6337 4.04489 12.6347 4.40289C12.6357 4.76089 12.7787 5.1039 13.0327 5.3559C13.2857 5.6089 13.6297 5.75092 13.9877 5.75092C14.3447 5.75092 14.6887 5.6089 14.9417 5.3559C15.1957 5.1039 15.3387 4.76089 15.3397 4.40289C15.3397 4.04489 15.1997 3.7009 14.9467 3.4469C14.6947 3.1929 14.3527 3.04891 13.9947 3.04691H82.4947C82.8507 3.04691 83.1927 3.18889 83.4447 3.44089C83.6967 3.69289 83.8387 4.0349 83.8387 4.3909V5.73489H3.20166V4.3909C3.20166 4.0349 3.34367 3.69289 3.59567 3.44089C3.84767 3.18889 4.18968 3.04691 4.54568 3.04691H4.54968Z" fill="#444444"/>
</svg>
