<svg width="82" height="77" viewBox="0 0 82 77" fill="none" xmlns="http://www.w3.org/2000/svg">
<path d="M72.0917 0.850098H9.64166C7.22066 0.852098 4.89966 1.81508 3.18866 3.52808C1.47666 5.24008 0.514672 7.56109 0.513672 9.98209V67.3821C0.517672 69.8011 1.48065 72.1191 3.19165 73.8291C4.90365 75.5381 7.22266 76.4991 9.64166 76.5001H72.0917C74.5107 76.4991 76.8307 75.5371 78.5406 73.8271C80.2516 72.1161 81.2127 69.7971 81.2147 67.3781V9.97809C81.2137 7.55809 80.2527 5.23809 78.5417 3.52609C76.8317 1.81509 74.5117 0.852098 72.0917 0.850098ZM52.6996 14.4311C54.4436 14.4311 56.1477 14.9481 57.5977 15.9171C59.0477 16.8851 60.1777 18.2621 60.8447 19.8731C61.5117 21.4841 61.6867 23.2571 61.3467 24.9671C61.0057 26.6771 60.1667 28.2481 58.9337 29.4811C57.7007 30.7141 56.1297 31.5531 54.4197 31.8941C52.7097 32.2341 50.9367 32.0591 49.3257 31.3921C47.7147 30.7251 46.3377 29.5951 45.3697 28.1451C44.4007 26.6951 43.8837 24.9911 43.8837 23.2471C43.8837 20.9091 44.8127 18.6671 46.4657 17.0131C48.1197 15.3601 50.3616 14.4311 52.6996 14.4311ZM69.2297 68.0631H13.7617C11.3267 68.0631 10.2427 66.3011 11.3397 64.1281L26.4697 34.1601C27.5697 31.9871 29.6556 31.7931 31.1346 33.7271L46.3487 53.6081C46.6707 54.0601 47.0887 54.4341 47.5737 54.7031C48.0577 54.9731 48.5967 55.1311 49.1497 55.1661C49.7037 55.2011 50.2576 55.1121 50.7726 54.9061C51.2876 54.7001 51.7497 54.3811 52.1257 53.9741L55.8477 50.2051C56.2137 49.7991 56.6687 49.4831 57.1777 49.2811C57.6857 49.0801 58.2337 49.0001 58.7787 49.0461C59.3237 49.0921 59.8507 49.2641 60.3177 49.5471C60.7857 49.8311 61.1807 50.2191 61.4737 50.6811L71.1117 64.4481C72.5047 66.4451 71.6647 68.0631 69.2297 68.0631Z" fill="#444444"/>
</svg>
