<svg width="20" height="20" viewBox="0 0 22 22" fill="none" xmlns="http://www.w3.org/2000/svg">
<path d="M21.453 14.223L19.182 12.357C19.2967 11.6198 19.2967 10.8692 19.182 10.132L21.453 8.26599C21.5338 8.20024 21.5884 8.10765 21.6068 8.00506C21.6251 7.90247 21.6061 7.79669 21.5531 7.70699L19.4851 4.19099C19.431 4.10077 19.3473 4.0321 19.2482 3.99672C19.1492 3.96133 19.0409 3.96143 18.942 3.99699L16.165 4.99699C15.5644 4.53695 14.9022 4.16331 14.198 3.88699L13.687 1.02199C13.6675 0.918913 13.6126 0.825924 13.5317 0.759225C13.4507 0.692525 13.3489 0.656346 13.244 0.656991H9.10896C9.00407 0.656346 8.90232 0.692525 8.82136 0.759225C8.74041 0.825924 8.6854 0.918913 8.66597 1.02199L8.15498 3.88699C7.4507 4.16331 6.78867 4.53695 6.18806 4.99699L3.41096 3.99699C3.31188 3.96097 3.20338 3.96064 3.10408 3.99605C3.00478 4.03147 2.92095 4.1004 2.86702 4.19099L0.800002 7.70699C0.746733 7.79664 0.727562 7.90247 0.745925 8.00512C0.764288 8.10777 0.818933 8.20037 0.899977 8.26599L3.17 10.132C3.05542 10.8692 3.05542 11.6198 3.17 12.357L0.899977 14.223C0.818933 14.2886 0.764288 14.3812 0.745925 14.4839C0.727562 14.5865 0.746733 14.6923 0.800002 14.782L2.86702 18.297C2.92123 18.3873 3.00512 18.456 3.10432 18.4914C3.20353 18.5267 3.31185 18.5266 3.41096 18.491L6.18806 17.491C6.78889 17.951 7.45085 18.3249 8.15498 18.602L8.66597 21.466C8.6854 21.5691 8.74041 21.6621 8.82136 21.7288C8.90232 21.7955 9.00407 21.8316 9.10896 21.831H13.244C13.3489 21.8316 13.4507 21.7955 13.5317 21.7288C13.6126 21.6621 13.6675 21.5691 13.687 21.466L14.198 18.602C14.9021 18.3249 15.5642 17.951 16.165 17.491L18.942 18.491C19.041 18.5264 19.1491 18.5264 19.2481 18.491C19.3471 18.4556 19.4309 18.3871 19.4851 18.297L21.5531 14.782C21.6061 14.6923 21.6251 14.5865 21.6068 14.4839C21.5884 14.3813 21.5338 14.2887 21.453 14.223ZM11.177 15.657C10.3075 15.641 9.46219 15.3686 8.74702 14.874C8.03186 14.3793 7.47873 13.6844 7.15706 12.8765C6.83539 12.0687 6.75961 11.1838 6.93904 10.3329C7.11847 9.48206 7.54521 8.70316 8.16572 8.09396C8.78624 7.48477 9.57282 7.07243 10.4268 6.90869C11.2808 6.74495 12.1642 6.83711 12.966 7.1736C13.7678 7.51008 14.4524 8.07591 14.9338 8.80006C15.4152 9.52421 15.672 10.3744 15.672 11.244C15.6595 12.4248 15.1794 13.5525 14.3367 14.3797C13.4941 15.207 12.3578 15.6663 11.177 15.657Z" fill="#2D2D2D"/>
</svg>
