<svg width="20" height="24" viewBox="0 0 21 26" fill="none" xmlns="http://www.w3.org/2000/svg">
<path d="M7.2251 22.7998C7.51614 23.461 7.99322 24.0233 8.59827 24.418C9.20331 24.8127 9.91014 25.0229 10.6326 25.0229C11.355 25.0229 12.0618 24.8127 12.6669 24.418C13.2719 24.0233 13.749 23.461 14.04 22.7998H7.2251Z" fill="#2D2D2D"/>
<path d="M10.6321 2.73293C11.6072 2.73188 12.5751 2.90109 13.4921 3.23293V3.12293C13.4913 2.39498 13.2016 1.69709 12.6868 1.18245C12.1719 0.667802 11.474 0.378459 10.7461 0.37793H10.519C9.79109 0.378459 9.09308 0.667802 8.57825 1.18245C8.06342 1.69709 7.77387 2.39498 7.77307 3.12293V3.23193C8.68985 2.90078 9.65733 2.73192 10.6321 2.73293Z" fill="#2D2D2D"/>
<path d="M19.6572 21.3519H1.60809C1.44115 21.3542 1.27843 21.2996 1.14666 21.1971C1.01489 21.0946 0.921938 20.9503 0.883112 20.7879C0.844962 20.6305 0.86253 20.4647 0.932917 20.3188C1.0033 20.1729 1.12214 20.056 1.2691 19.9879C1.78916 19.5705 2.19113 19.0245 2.43511 18.4039C3.32534 16.0957 3.73862 13.6312 3.65008 11.1589C3.66808 9.32123 4.40976 7.56475 5.71429 6.27035C7.01882 4.97594 8.7811 4.24796 10.6188 4.24428C12.4566 4.24059 14.2216 4.9615 15.5313 6.25066C16.841 7.53983 17.5897 9.29332 17.615 11.1309V11.1589C17.5265 13.6312 17.9399 16.0957 18.8301 18.4039C19.0741 19.0245 19.4761 19.5705 19.9961 19.9879C20.1431 20.056 20.2618 20.1729 20.3322 20.3188C20.4026 20.4647 20.4203 20.6305 20.3821 20.7879C20.3433 20.9503 20.2504 21.0946 20.1186 21.1971C19.9868 21.2996 19.8241 21.3542 19.6572 21.3519Z" fill="#2D2D2D"/>
</svg>
