<svg width="22" height="22" viewBox="0 0 27 27" fill="none" xmlns="http://www.w3.org/2000/svg">
<path d="M13.418 0.0339355C10.8352 0.0339355 8.31033 0.799834 6.16279 2.23478C4.01525 3.66972 2.3415 5.70925 1.3531 8.09547C0.364691 10.4817 0.106047 13.1074 0.609931 15.6406C1.11382 18.1738 2.35757 20.5007 4.18391 22.327C6.01024 24.1534 8.33711 25.3971 10.8703 25.901C13.4035 26.4049 16.0293 26.1463 18.4155 25.1579C20.8017 24.1695 22.8412 22.4957 24.2762 20.3481C25.7111 18.2006 26.477 15.6758 26.477 13.0929C26.473 9.63069 25.096 6.31139 22.6478 3.86321C20.1996 1.41504 16.8803 0.0379056 13.418 0.0339355ZM13.418 20.7109C13.2029 20.7109 12.9926 20.6472 12.8137 20.5276C12.6348 20.4081 12.4953 20.2383 12.4129 20.0395C12.3305 19.8408 12.3089 19.6221 12.3508 19.411C12.3927 19.2 12.4962 19.0062 12.6483 18.854C12.8003 18.7018 12.9942 18.5981 13.2051 18.556C13.4161 18.5139 13.6349 18.5353 13.8337 18.6175C14.0325 18.6997 14.2024 18.839 14.3221 19.0177C14.4418 19.1965 14.5059 19.4068 14.506 19.6219C14.506 19.9106 14.3915 20.1874 14.1874 20.3916C13.9834 20.5958 13.7067 20.7107 13.418 20.7109ZM15.14 13.7909C14.951 13.8785 14.791 14.0182 14.6787 14.1935C14.5663 14.3689 14.5065 14.5727 14.506 14.7809V15.2689C14.506 15.5575 14.3914 15.8342 14.1873 16.0383C13.9833 16.2423 13.7066 16.3569 13.418 16.3569C13.1295 16.3569 12.8527 16.2423 12.6486 16.0383C12.4446 15.8342 12.33 15.5575 12.33 15.2689V14.7809C12.3314 14.1568 12.5109 13.5461 12.8475 13.0205C13.1841 12.4949 13.6638 12.0763 14.23 11.8139C14.7223 11.5687 15.1509 11.2125 15.4821 10.7735C15.8134 10.3345 16.0382 9.8246 16.139 9.28394C16.1459 8.92229 16.0807 8.56288 15.9471 8.22675C15.8135 7.89061 15.6142 7.58448 15.3609 7.32627C15.1076 7.06806 14.8054 6.86294 14.4719 6.72292C14.1384 6.5829 13.7802 6.51078 13.4185 6.51078C13.0568 6.51078 12.6987 6.5829 12.3652 6.72292C12.0317 6.86294 11.7295 7.06806 11.4761 7.32627C11.2228 7.58448 11.0236 7.89061 10.89 8.22675C10.7564 8.56288 10.691 8.92229 10.6979 9.28394C10.6979 9.57249 10.5834 9.84923 10.3793 10.0533C10.1753 10.2573 9.89861 10.3719 9.61005 10.3719C9.3215 10.3719 9.04468 10.2573 8.84064 10.0533C8.6366 9.84923 8.52204 9.57249 8.52204 9.28394C8.56647 8.01484 9.10181 6.81255 10.0153 5.93046C10.9288 5.04837 12.1491 4.55537 13.419 4.55537C14.6889 4.55537 15.9092 5.04837 16.8227 5.93046C17.7362 6.81255 18.2716 8.01484 18.316 9.28394C18.2137 10.2433 17.8683 11.1607 17.3126 11.9494C16.7568 12.7381 16.009 13.3719 15.14 13.7909Z" fill="#B66FD3"/>
</svg>
