<svg width="25" height="25" viewBox="0 0 40 40" fill="none" xmlns="http://www.w3.org/2000/svg">
<path d="M19.9771 0.151978C16.1204 0.151978 12.3502 1.29563 9.14347 3.43832C5.93672 5.58101 3.43738 8.62649 1.96147 12.1897C0.485559 15.7528 0.0993143 19.6736 0.851726 23.4562C1.60414 27.2389 3.46139 30.7134 6.18852 33.4406C8.91564 36.1677 12.3901 38.0249 16.1728 38.7773C19.9554 39.5297 23.8762 39.1435 27.4394 37.6676C31.0025 36.1917 34.048 33.6924 36.1907 30.4856C38.3334 27.2788 39.4771 23.5087 39.4771 19.652C39.4771 14.4803 37.4226 9.52036 33.7657 5.8634C30.1087 2.20644 25.1488 0.151978 19.9771 0.151978ZM26.4921 12.708C27.0855 12.708 27.6655 12.8839 28.1589 13.2136C28.6522 13.5432 29.0367 14.0118 29.2637 14.5599C29.4908 15.1081 29.5502 15.7113 29.4345 16.2932C29.3187 16.8752 29.033 17.4097 28.6134 17.8293C28.1939 18.2489 27.6593 18.5346 27.0773 18.6503C26.4954 18.7661 25.8922 18.7067 25.344 18.4796C24.7959 18.2526 24.3274 17.868 23.9977 17.3747C23.6681 16.8813 23.4921 16.3013 23.4921 15.708C23.4921 14.9123 23.8082 14.1493 24.3708 13.5867C24.9334 13.024 25.6965 12.708 26.4921 12.708ZM13.4621 12.708C14.0554 12.708 14.6355 12.8839 15.1288 13.2136C15.6222 13.5432 16.0066 14.0118 16.2337 14.5599C16.4607 15.1081 16.5202 15.7113 16.4045 16.2932C16.2887 16.8752 16.003 17.4097 15.5834 17.8293C15.1639 18.2489 14.6293 18.5346 14.0474 18.6503C13.4655 18.7661 12.8622 18.7067 12.314 18.4796C11.7658 18.2526 11.2973 17.868 10.9677 17.3747C10.638 16.8813 10.4621 16.3013 10.4621 15.708C10.4621 14.9123 10.7781 14.1493 11.3407 13.5867C11.9033 13.024 12.6664 12.708 13.4621 12.708ZM19.9771 31.866C17.479 31.8584 15.0427 31.0884 12.9941 29.6588C10.9454 28.2291 9.38206 26.2081 8.5131 23.866L10.9251 22.976C11.6068 24.8274 12.84 26.4253 14.4583 27.5539C16.0766 28.6825 18.0022 29.2877 19.9751 29.2877C21.9481 29.2877 23.8736 28.6825 25.4919 27.5539C27.1102 26.4253 28.3433 24.8274 29.0251 22.976L31.4371 23.866C30.5683 26.2075 29.0057 28.2281 26.9578 29.6576C24.91 31.0872 22.4745 31.8576 19.9771 31.866Z" fill="#B66FD3"/>
<path d="M19.9771 0.151978C16.1204 0.151978 12.3502 1.29563 9.14347 3.43832C5.93672 5.58101 3.43738 8.62649 1.96147 12.1897C0.485559 15.7528 0.0993143 19.6736 0.851726 23.4562C1.60414 27.2389 3.46139 30.7134 6.18852 33.4406C8.91564 36.1677 12.3901 38.0249 16.1728 38.7773C19.9554 39.5297 23.8762 39.1435 27.4394 37.6676C31.0025 36.1917 34.048 33.6924 36.1907 30.4856C38.3334 27.2788 39.4771 23.5087 39.4771 19.652C39.4771 14.4803 37.4226 9.52036 33.7657 5.8634C30.1087 2.20644 25.1488 0.151978 19.9771 0.151978ZM26.4921 12.708C27.0855 12.708 27.6655 12.8839 28.1589 13.2136C28.6522 13.5432 29.0367 14.0118 29.2637 14.5599C29.4908 15.1081 29.5502 15.7113 29.4345 16.2932C29.3187 16.8752 29.033 17.4097 28.6134 17.8293C28.1939 18.2489 27.6593 18.5346 27.0773 18.6503C26.4954 18.7661 25.8922 18.7067 25.344 18.4796C24.7959 18.2526 24.3274 17.868 23.9977 17.3747C23.6681 16.8813 23.4921 16.3013 23.4921 15.708C23.4921 14.9123 23.8082 14.1493 24.3708 13.5867C24.9334 13.024 25.6965 12.708 26.4921 12.708ZM13.4621 12.708C14.0554 12.708 14.6355 12.8839 15.1288 13.2136C15.6222 13.5432 16.0066 14.0118 16.2337 14.5599C16.4607 15.1081 16.5202 15.7113 16.4045 16.2932C16.2887 16.8752 16.003 17.4097 15.5834 17.8293C15.1639 18.2489 14.6293 18.5346 14.0474 18.6503C13.4655 18.7661 12.8622 18.7067 12.314 18.4796C11.7658 18.2526 11.2973 17.868 10.9677 17.3747C10.638 16.8813 10.4621 16.3013 10.4621 15.708C10.4621 14.9123 10.7781 14.1493 11.3407 13.5867C11.9033 13.024 12.6664 12.708 13.4621 12.708ZM19.9771 31.866C17.479 31.8584 15.0427 31.0884 12.9941 29.6588C10.9454 28.2291 9.38206 26.2081 8.5131 23.866L10.9251 22.976C11.6068 24.8274 12.84 26.4253 14.4583 27.5539C16.0766 28.6825 18.0022 29.2877 19.9751 29.2877C21.9481 29.2877 23.8736 28.6825 25.4919 27.5539C27.1102 26.4253 28.3433 24.8274 29.0251 22.976L31.4371 23.866C30.5683 26.2075 29.0057 28.2281 26.9578 29.6576C24.91 31.0872 22.4745 31.8576 19.9771 31.866Z" fill="url(#paint0_linear)"/>
<path d="M19.9771 0.151978C16.1204 0.151978 12.3502 1.29563 9.14347 3.43832C5.93672 5.58101 3.43738 8.62649 1.96147 12.1897C0.485559 15.7528 0.0993143 19.6736 0.851726 23.4562C1.60414 27.2389 3.46139 30.7134 6.18852 33.4406C8.91564 36.1677 12.3901 38.0249 16.1728 38.7773C19.9554 39.5297 23.8762 39.1435 27.4394 37.6676C31.0025 36.1917 34.048 33.6924 36.1907 30.4856C38.3334 27.2788 39.4771 23.5087 39.4771 19.652C39.4771 14.4803 37.4226 9.52036 33.7657 5.8634C30.1087 2.20644 25.1488 0.151978 19.9771 0.151978ZM26.4921 12.708C27.0855 12.708 27.6655 12.8839 28.1589 13.2136C28.6522 13.5432 29.0367 14.0118 29.2637 14.5599C29.4908 15.1081 29.5502 15.7113 29.4345 16.2932C29.3187 16.8752 29.033 17.4097 28.6134 17.8293C28.1939 18.2489 27.6593 18.5346 27.0773 18.6503C26.4954 18.7661 25.8922 18.7067 25.344 18.4796C24.7959 18.2526 24.3274 17.868 23.9977 17.3747C23.6681 16.8813 23.4921 16.3013 23.4921 15.708C23.4921 14.9123 23.8082 14.1493 24.3708 13.5867C24.9334 13.024 25.6965 12.708 26.4921 12.708ZM13.4621 12.708C14.0554 12.708 14.6355 12.8839 15.1288 13.2136C15.6222 13.5432 16.0066 14.0118 16.2337 14.5599C16.4607 15.1081 16.5202 15.7113 16.4045 16.2932C16.2887 16.8752 16.003 17.4097 15.5834 17.8293C15.1639 18.2489 14.6293 18.5346 14.0474 18.6503C13.4655 18.7661 12.8622 18.7067 12.314 18.4796C11.7658 18.2526 11.2973 17.868 10.9677 17.3747C10.638 16.8813 10.4621 16.3013 10.4621 15.708C10.4621 14.9123 10.7781 14.1493 11.3407 13.5867C11.9033 13.024 12.6664 12.708 13.4621 12.708ZM19.9771 31.866C17.479 31.8584 15.0427 31.0884 12.9941 29.6588C10.9454 28.2291 9.38206 26.2081 8.5131 23.866L10.9251 22.976C11.6068 24.8274 12.84 26.4253 14.4583 27.5539C16.0766 28.6825 18.0022 29.2877 19.9751 29.2877C21.9481 29.2877 23.8736 28.6825 25.4919 27.5539C27.1102 26.4253 28.3433 24.8274 29.0251 22.976L31.4371 23.866C30.5683 26.2075 29.0057 28.2281 26.9578 29.6576C24.91 31.0872 22.4745 31.8576 19.9771 31.866Z" fill="url(#paint1_linear)"/>
<defs>
<linearGradient id="paint0_linear" x1="19.9771" y1="0.151978" x2="19.9771" y2="39.152" gradientUnits="userSpaceOnUse">
<stop stop-color="white"/>
<stop offset="1" stop-color="white" stop-opacity="0"/>
</linearGradient>
<linearGradient id="paint1_linear" x1="19.9771" y1="0.151978" x2="19.9771" y2="39.152" gradientUnits="userSpaceOnUse">
<stop stop-color="white"/>
<stop offset="1" stop-color="white" stop-opacity="0"/>
</linearGradient>
</defs>
</svg>
